<svg width="64" height="64" viewBox="0 0 64 64" fill="none" xmlns="http://www.w3.org/2000/svg">
<rect x="64" y="64" width="64" height="64" rx="32" transform="rotate(-180 64 64)" fill="#F59E0B"/>
<path fill-rule="evenodd" clip-rule="evenodd" d="M27.414 41.4139C27.0389 41.7889 26.5303 41.9995 26 41.9995C25.4697 41.9995 24.9611 41.7889 24.586 41.4139L16.586 33.4139C16.2111 33.0389 16.0004 32.5303 16.0004 31.9999C16.0004 31.4696 16.2111 30.961 16.586 30.5859L24.586 22.5859C24.9632 22.2216 25.4684 22.02 25.9928 22.0246C26.5172 22.0291 27.0188 22.2395 27.3896 22.6103C27.7605 22.9811 27.9708 23.4827 27.9753 24.0071C27.9799 24.5315 27.7783 25.0367 27.414 25.4139L22.828 29.9999L46 29.9999C46.5304 29.9999 47.0391 30.2107 47.4142 30.5857C47.7893 30.9608 48 31.4695 48 31.9999C48 32.5304 47.7893 33.0391 47.4142 33.4142C47.0391 33.7892 46.5304 33.9999 46 33.9999H22.828L27.414 38.5859C27.7889 38.961 27.9996 39.4696 27.9996 39.9999C27.9996 40.5303 27.7889 41.0389 27.414 41.4139Z" fill="white"/>
</svg>
