<svg width="125" height="125" viewBox="0 0 125 125" fill="none" xmlns="http://www.w3.org/2000/svg">
<rect x="0.5" y="0.097168" width="124" height="124" rx="41.0443" fill="#83CD29"/>
<path d="M62.4999 103.989C61.2763 103.99 60.0742 103.692 59.0144 103.127L47.923 97.0619C46.2677 96.2061 47.0743 95.9039 47.6217 95.7273C49.3822 95.2249 51.0678 94.5212 52.6394 93.6327C52.771 93.5765 52.9159 93.5522 53.0604 93.5621C53.205 93.5721 53.3444 93.6159 53.4654 93.6895L61.9881 98.3665C62.1468 98.4441 62.3236 98.4846 62.5032 98.4846C62.6827 98.4846 62.8595 98.4441 63.0182 98.3665L96.2537 80.646C96.4092 80.5599 96.5378 80.438 96.627 80.2922C96.7162 80.1464 96.7628 79.9816 96.7622 79.8142V44.3671C96.7624 44.197 96.715 44.0297 96.6248 43.8814C96.5346 43.7331 96.4045 43.6087 96.2472 43.5203L63.0117 25.8148C62.855 25.7332 62.6782 25.6904 62.4983 25.6904C62.3184 25.6904 62.1416 25.7332 61.9849 25.8148L28.7688 43.5263C28.6104 43.6129 28.4788 43.7357 28.3869 43.883C28.295 44.0304 28.2458 44.1971 28.2441 44.3671V79.7992C28.2445 79.9663 28.2931 80.1303 28.3847 80.2743C28.4763 80.4184 28.6078 80.5374 28.7656 80.6191L37.8811 85.4786C42.821 87.7588 45.8466 85.0717 45.8466 82.3726V47.3894C45.8466 47.1513 45.9489 46.923 46.1312 46.7546C46.3134 46.5863 46.5606 46.4917 46.8184 46.4917H51.0295C51.2872 46.4917 51.5344 46.5863 51.7166 46.7546C51.8989 46.923 52.0013 47.1513 52.0013 47.3894V82.3756C52.0013 88.465 48.4121 91.951 42.1602 91.951C39.4631 91.9944 36.8082 91.3281 34.5057 90.0299L25.7692 85.4008C24.7086 84.8303 23.8286 84.0127 23.217 83.0298C22.6054 82.0469 22.2836 80.9329 22.2837 79.7992V44.3671C22.2806 43.2316 22.601 42.1154 23.2128 41.1305C23.8247 40.1457 24.7063 39.3269 25.7692 38.7565L59.0079 21.03C60.0786 20.4889 61.2795 20.2053 62.4999 20.2053C63.7204 20.2053 64.9212 20.4889 65.9919 21.03L99.2274 38.7565C100.288 39.326 101.168 40.1423 101.78 41.1242C102.392 42.1061 102.715 43.2191 102.716 44.3522V79.7992C102.714 80.9329 102.391 82.0465 101.779 83.0292C101.167 84.0119 100.287 84.8295 99.2274 85.4008L65.9919 103.127C64.9302 103.693 63.7257 103.99 62.4999 103.989Z" fill="white"/>
<path d="M56.1948 67.9427C56.1948 67.7046 56.2972 67.4763 56.4795 67.3079C56.6617 67.1396 56.9089 67.045 57.1666 67.045H61.4652C61.6949 67.0457 61.9169 67.1215 62.0918 67.259C62.2667 67.3965 62.3833 67.5868 62.4208 67.7961C63.0687 71.8387 65.0123 73.8765 73.8005 73.8765C80.8007 73.8765 83.7841 72.4132 83.7841 68.981C83.7841 67.0031 82.9387 65.5339 72.0578 64.5494C62.9618 63.7176 57.3383 61.8563 57.3383 55.1416C57.3383 48.9475 62.9909 45.252 72.4659 45.252C83.1136 45.252 88.384 48.6662 89.0513 55.9914C89.0615 56.1137 89.0444 56.2366 89.0012 56.3526C88.958 56.4686 88.8895 56.5751 88.7999 56.6657C88.7104 56.7562 88.6017 56.8289 88.4806 56.8792C88.3594 56.9294 88.2285 56.9562 88.0957 56.9579H83.7679C83.5508 56.9551 83.341 56.8852 83.1719 56.7594C83.0028 56.6336 82.8842 56.459 82.835 56.2637C81.8017 52.0116 79.2718 50.6531 72.4692 50.6531C64.8244 50.6531 63.9368 53.1128 63.9368 54.956C63.9368 57.1883 64.9863 57.8406 75.3068 59.1004C85.5204 60.3482 90.3729 62.1137 90.3729 68.7446C90.3729 75.4355 84.3348 79.2656 73.8038 79.2656C59.243 79.2836 56.1948 73.1164 56.1948 67.9427Z" fill="white"/>
</svg>
