<svg width="124" height="125" viewBox="0 0 124 125" fill="none" xmlns="http://www.w3.org/2000/svg">
<rect y="0.097168" width="124" height="124" rx="41.0443" fill="#38BDF8"/>
<path d="M103.892 62.1059C103.892 56.4966 96.941 51.1808 86.2845 47.8843C88.7437 36.9074 87.6507 28.1743 82.8347 25.3783C81.7247 24.7225 80.4268 24.4118 79.0093 24.4118V28.2606C79.7949 28.2606 80.4268 28.4159 80.9562 28.7093C83.2788 30.0555 84.2864 35.1815 83.5008 41.7745C83.3129 43.3969 83.0055 45.1056 82.6298 46.8487C79.2826 46.0203 75.6279 45.3817 71.7854 44.9675C69.4799 41.7745 67.089 38.875 64.681 36.3379C70.2484 31.1084 75.4742 28.2433 79.0264 28.2433V24.3945C74.33 24.3945 68.182 27.7773 61.9656 33.6455C55.7493 27.8119 49.6013 24.4636 44.9049 24.4636V28.3124C48.44 28.3124 53.6829 31.1601 59.2503 36.3552C56.8594 38.8923 54.4685 41.7745 52.1971 44.9675C48.3375 45.3817 44.6829 46.0203 41.3356 46.866C40.9429 45.1401 40.6525 43.4659 40.4476 41.8608C39.6449 35.2678 40.6354 30.1418 42.941 28.7784C43.4533 28.4677 44.1193 28.3296 44.9049 28.3296V24.4808C43.4704 24.4808 42.1725 24.7915 41.0453 25.4473C36.2464 28.2433 35.1705 36.9592 37.6468 47.9015C27.0244 51.2153 20.1079 56.5139 20.1079 62.1059C20.1079 67.7151 27.0586 73.0309 37.7151 76.3274C35.2559 87.3043 36.3489 96.0374 41.1649 98.8334C42.2749 99.4893 43.5728 99.7999 45.0074 99.7999C49.7038 99.7999 55.8518 96.4171 62.0681 90.549C68.2844 96.3826 74.4325 99.7309 79.1289 99.7309C80.5634 99.7309 81.8613 99.4202 82.9884 98.7644C87.7873 95.9684 88.8632 87.2525 86.3869 76.3102C96.9752 73.0137 103.892 67.6978 103.892 62.1059ZM81.6564 50.594C81.0245 52.8204 80.2389 55.1159 79.3509 57.4114C78.6507 56.0306 77.9163 54.6499 77.1137 53.2692C76.3281 51.8884 75.4913 50.5422 74.6545 49.2305C77.0795 49.5929 79.4192 50.0417 81.6564 50.594ZM73.8347 68.975C72.5027 71.305 71.1364 73.5142 69.719 75.568C67.1744 75.7924 64.5956 75.9132 61.9998 75.9132C59.4211 75.9132 56.8423 75.7924 54.3148 75.5853C52.8973 73.5314 51.514 71.3395 50.1819 69.0268C48.884 66.7658 47.7057 64.4704 46.6298 62.1576C47.6886 59.8449 48.884 57.5322 50.1649 55.2712C51.4969 52.9412 52.8632 50.7321 54.2806 48.6782C56.8252 48.4538 59.404 48.333 61.9998 48.333C64.5786 48.333 67.1573 48.4538 69.6848 48.661C71.1023 50.7148 72.4856 52.9067 73.8177 55.2194C75.1156 57.4804 76.2939 59.7759 77.3698 62.0886C76.2939 64.4013 75.1156 66.7141 73.8347 68.975ZM79.3509 66.7313C80.2731 69.0441 81.0587 71.3568 81.7076 73.6005C79.4704 74.1528 77.1137 74.6188 74.6715 74.9812C75.5084 73.6523 76.3452 72.2888 77.1308 70.8908C77.9163 69.5101 78.6507 68.1121 79.3509 66.7313ZM62.034 85.1469C60.4457 83.49 58.8575 81.6433 57.2863 79.6239C58.8233 79.693 60.3945 79.7448 61.9827 79.7448C63.588 79.7448 65.1763 79.7102 66.7304 79.6239C65.1934 81.6433 63.6051 83.49 62.034 85.1469ZM49.3281 74.9812C46.903 74.6188 44.5633 74.17 42.3262 73.6177C42.958 71.3913 43.7436 69.0958 44.6317 66.8004C45.3318 68.1811 46.0662 69.5618 46.8689 70.9426C47.6715 72.3233 48.4912 73.6695 49.3281 74.9812ZM61.9486 39.0648C63.5368 40.7217 65.125 42.5685 66.6962 44.5878C65.1592 44.5187 63.588 44.467 61.9998 44.467C60.3945 44.467 58.8063 44.5015 57.2522 44.5878C58.7892 42.5685 60.3774 40.7217 61.9486 39.0648ZM49.311 49.2305C48.4742 50.5595 47.6374 51.9229 46.8518 53.3209C46.0662 54.7017 45.3318 56.0824 44.6317 57.4631C43.7095 55.1504 42.9239 52.8377 42.2749 50.594C44.5121 50.0589 46.8689 49.5929 49.311 49.2305ZM33.8556 70.839C27.81 68.2329 23.8992 64.8156 23.8992 62.1059C23.8992 59.3962 27.81 55.9616 33.8556 53.3727C35.3243 52.7341 36.9296 52.1646 38.5861 51.6295C39.5595 55.0123 40.8404 58.5332 42.4286 62.1404C40.8575 65.7303 39.5937 69.2339 38.6373 72.5994C36.9466 72.0644 35.3413 71.4776 33.8556 70.839ZM43.0434 95.5024C40.7208 94.1562 39.7132 89.0302 40.4988 82.4372C40.6867 80.8148 40.9941 79.1062 41.3698 77.363C44.7171 78.1914 48.3717 78.83 52.2142 79.2442C54.5197 82.4372 56.9106 85.3367 59.3186 87.8738C53.7512 93.1034 48.5254 95.9684 44.9732 95.9684C44.2047 95.9511 43.5558 95.7958 43.0434 95.5024ZM83.552 82.3509C84.3547 88.9439 83.3642 94.0699 81.0586 95.4334C80.5463 95.744 79.8803 95.8821 79.0947 95.8821C75.5596 95.8821 70.3167 93.0343 64.7493 87.8393C67.1402 85.3022 69.5311 82.4199 71.8025 79.227C75.6621 78.8128 79.3167 78.1742 82.664 77.3285C83.0568 79.0716 83.3642 80.7458 83.552 82.3509ZM90.127 70.839C88.6583 71.4776 87.053 72.0472 85.3964 72.5822C84.423 69.1994 83.1421 65.6785 81.5539 62.0713C83.1251 58.4814 84.3888 54.9778 85.3452 51.6123C87.0359 52.1473 88.6412 52.7341 90.144 53.3727C96.1896 55.9788 100.1 59.3962 100.1 62.1059C100.083 64.8156 96.1725 68.2501 90.127 70.839Z" fill="white"/>
<path d="M61.9818 69.9929C66.2922 69.9929 69.7864 66.4616 69.7864 62.1055C69.7864 57.7493 66.2922 54.218 61.9818 54.218C57.6715 54.218 54.1772 57.7493 54.1772 62.1055C54.1772 66.4616 57.6715 69.9929 61.9818 69.9929Z" fill="white"/>
</svg>
