<svg width="124" height="125" viewBox="0 0 124 125" fill="none" xmlns="http://www.w3.org/2000/svg">
<rect y="0.097168" width="124" height="124" rx="41.0443" fill="#00618A"/>
<path d="M13.8242 83.3104H17.0742V69.8622L22.1057 81.5859C22.6994 83.0049 23.512 83.507 25.1056 83.507C26.6995 83.507 27.4807 83.0049 28.0746 81.5859L33.1059 69.8622V83.3104H36.3561V69.8842C36.3561 68.5744 35.8559 67.9411 34.8248 67.6139C32.356 66.8061 30.6996 67.5046 29.9495 69.2512L25.0119 80.8216L20.2306 69.2512C19.5119 67.5046 17.8243 66.8061 15.3556 67.6139C14.3242 67.9411 13.8242 68.5744 13.8242 69.8842V83.3104Z" fill="white"/>
<path d="M39.0576 72.3637H42.3067V79.7727C42.2763 80.1753 42.4299 81.1199 44.2104 81.1493C45.1187 81.1642 51.2207 81.1493 51.2777 81.1493V72.3276H54.5343C54.5492 72.3276 54.531 84.3579 54.5313 84.4091C54.5492 87.3761 51.018 88.0205 49.3904 88.0704H39.1282V85.7794C39.1462 85.7794 49.3828 85.7815 49.4086 85.7788C51.5004 85.5473 51.2534 84.4579 51.2531 84.0911V83.198H44.3452C41.1314 83.1669 39.0847 81.6972 39.0594 80.0063C39.0571 79.8496 39.1287 72.4377 39.0576 72.3637Z" fill="white"/>
<path d="M57.04 83.3087H66.3838C67.4776 83.3087 68.5403 83.0687 69.3841 82.6536C70.7902 81.9771 71.4778 81.0604 71.4778 79.8593V77.3707C71.4778 76.3882 70.6966 75.4711 69.1652 74.8601C68.3525 74.5323 67.3526 74.3578 66.3838 74.3578H62.4461C61.1339 74.3578 60.5088 73.9431 60.3526 73.0263C60.3212 72.917 60.3212 72.8295 60.3212 72.7205V71.1707C60.3212 71.0832 60.3212 70.9957 60.3526 70.8867C60.5088 70.1882 60.8527 69.9914 62.0088 69.8824C62.1027 69.8824 62.2274 69.8604 62.3213 69.8604H71.6028V67.5903H62.4775C61.165 67.5903 60.4774 67.6776 59.8525 67.8738C57.9149 68.5071 57.0712 69.5114 57.0712 71.258V73.2445C57.0712 74.7729 58.7276 76.0827 61.5087 76.3882C61.8215 76.4099 62.1338 76.4316 62.4461 76.4316H65.8212C65.9465 76.4316 66.0715 76.4316 66.1651 76.4537C67.1964 76.5412 67.6338 76.7374 67.9466 77.1304C68.1339 77.3267 68.1964 77.5235 68.1964 77.7417V79.7283C68.1964 79.9685 68.0402 80.2743 67.7279 80.5361C67.4465 80.7981 66.9778 80.9728 66.3527 81.0166C66.2277 81.0166 66.134 81.0383 66.009 81.0383H57.04V83.3087Z" fill="#E48E00"/>
<path d="M91.7495 79.3573C91.7495 81.6931 93.4057 83.0032 96.7496 83.2652C97.0619 83.2869 97.3748 83.3087 97.6871 83.3087H106.156V81.0383H97.6245C95.7183 81.0383 94.9996 80.5361 94.9996 79.3355V67.5903H91.7495V79.3573Z" fill="#E48E00"/>
<path d="M73.5498 79.477V71.3827C73.5498 69.3264 74.9278 68.0792 77.652 67.6854C77.9339 67.6419 78.2472 67.6199 78.5289 67.6199H84.698C85.0111 67.6199 85.2933 67.6419 85.6063 67.6854C88.3308 68.0792 89.7085 69.3264 89.7085 71.3827V79.477C89.7085 81.1453 89.1234 82.0382 87.7748 82.6201L90.9762 85.648H87.2025L84.6125 83.1982L82.005 83.3714H78.5289C77.9339 83.3714 77.3078 83.2836 76.6187 83.0868C74.552 82.4962 73.5498 81.3585 73.5498 79.477ZM77.0578 79.2802C77.0578 79.3897 77.0889 79.499 77.1203 79.6303C77.3081 80.5709 78.1536 81.096 79.4375 81.096H82.3902L79.6779 78.5302H83.4516L85.8172 80.7679C86.253 80.5245 86.54 80.1522 86.6402 79.674C86.6713 79.5648 86.6713 79.4552 86.6713 79.346V71.5798C86.6713 71.4922 86.6713 71.3827 86.6402 71.2732C86.4521 70.3983 85.6066 69.8952 84.3541 69.8952H79.4375C77.9972 69.8952 77.0578 70.5516 77.0578 71.5798V79.2802Z" fill="#E48E00"/>
<path d="M107.278 66.9394C105.28 66.8827 103.754 67.0773 102.449 67.6539C102.078 67.8178 101.487 67.822 101.427 68.3089C101.63 68.5327 101.662 68.8669 101.824 69.1421C102.135 69.6704 102.661 70.3782 103.131 70.7495C103.643 71.155 104.172 71.5888 104.721 71.9399C105.699 72.5647 106.791 72.9214 107.732 73.5473C108.287 73.9162 108.838 74.3808 109.379 74.7971C109.647 75.0029 109.827 75.323 110.175 75.4519C110.175 75.4323 110.175 75.4124 110.175 75.3925C109.992 75.1488 109.945 74.8136 109.777 74.559C109.531 74.3012 109.285 74.0432 109.038 73.7852C108.316 72.7809 107.4 71.8988 106.425 71.1661C105.648 70.5816 103.909 69.7921 103.585 68.8446C103.566 68.8247 103.547 68.8048 103.528 68.7849C104.079 68.72 104.724 68.511 105.233 68.3683C106.087 68.1283 106.85 68.1904 107.732 67.9517C108.13 67.8326 108.527 67.7133 108.925 67.5945C108.925 67.5149 108.925 67.4359 108.925 67.3563C108.479 66.8769 108.161 66.2425 107.675 65.8086C106.403 64.6736 105.015 63.5396 103.585 62.5941C102.792 62.0696 101.812 61.7288 100.972 61.2844C100.689 61.135 100.193 61.0573 100.006 60.8081C99.5646 60.2184 99.3242 59.471 98.9838 58.7842C98.2706 57.3453 97.5703 55.7739 96.9386 54.2601C96.5076 53.2278 96.2262 52.2098 95.6889 51.2837C93.1095 46.8399 90.333 44.1576 86.0318 41.5212C85.1167 40.9605 84.0148 40.7391 82.8504 40.4498C82.2258 40.4102 81.6006 40.3703 80.9758 40.3307C80.5944 40.1636 80.1976 39.6747 79.8397 39.4377C78.4149 38.4945 74.7601 36.4429 73.7048 39.1402C73.0384 40.8427 74.7006 42.504 75.2951 43.3667C75.7125 43.9719 76.2467 44.6504 76.5448 45.331C76.741 45.7783 76.7749 46.2269 76.9427 46.7003C77.3557 47.8662 77.7148 49.1347 78.2491 50.2123C78.5191 50.7574 78.8168 51.3319 79.1582 51.8195C79.3675 52.1186 79.7261 52.2504 79.7828 52.7125C79.432 53.2268 79.412 54.0252 79.2148 54.6768C78.327 57.6103 78.6619 61.2564 79.9533 63.4275C80.3497 64.0939 81.283 65.5233 82.5664 64.9751C83.6891 64.4959 83.4383 63.0111 83.7594 61.7011C83.8321 61.404 83.7875 61.1857 83.9298 60.9868C83.9298 61.0065 83.9298 61.0265 83.9298 61.0464C84.2707 61.7607 84.6116 62.4749 84.9525 63.1891C85.7092 64.4662 87.0523 65.801 88.1904 66.7016C88.7806 67.1686 89.2452 67.9761 90.0083 68.2492C90.0083 68.2293 90.0083 68.2097 90.0083 68.1896C89.989 68.1896 89.9703 68.1896 89.9513 68.1896C89.8035 67.948 89.5722 67.848 89.3834 67.6539C88.9387 67.1972 88.4445 66.6294 88.0767 66.1062C87.0416 64.6336 86.1268 63.0217 85.2934 61.344C84.8953 60.543 84.5493 59.6591 84.2137 58.8438C84.0844 58.5294 84.0859 58.0542 83.8164 57.8913C83.4489 58.4887 82.9076 58.9717 82.6234 59.6772C82.1688 60.8048 82.1101 62.1799 81.9418 63.6059C81.8421 63.6433 81.8864 63.6176 81.8279 63.6653C81.0368 63.4654 80.7586 62.6119 80.4648 61.8798C79.721 60.0281 79.5828 57.0465 80.2373 54.9151C80.4066 54.3637 81.1719 52.6267 80.8622 52.1173C80.7144 51.609 80.2264 51.315 79.9533 50.9266C79.6155 50.4464 79.2781 49.8142 79.0443 49.2598C78.4356 47.816 78.1514 46.1952 77.5106 44.7359C77.2044 44.0382 76.6863 43.3322 76.2609 42.712C75.7899 42.0249 75.2625 41.5189 74.8975 40.6878C74.7677 40.3926 74.5913 39.9199 74.7839 39.6164C74.8451 39.4116 74.9314 39.3261 75.1248 39.2593C75.4543 38.9931 76.372 39.3479 76.7152 39.4973C77.6263 39.8938 78.3865 40.2714 79.1582 40.807C79.5287 41.0644 79.9032 41.5621 80.3509 41.6999C80.5213 41.6999 80.6918 41.6999 80.8622 41.6999C81.6619 41.8926 82.5578 41.7597 83.3049 41.9975C84.6255 42.4181 85.8089 43.0722 86.8837 43.7834C90.1581 45.9498 92.8352 49.0337 94.6665 52.7125C94.9611 53.3047 95.0886 53.8701 95.348 54.4984C95.8717 55.7653 96.5312 57.069 97.052 58.3079C97.5719 59.5441 98.0785 60.7916 98.8132 61.8202C99.1997 62.361 100.692 62.651 101.37 62.9512C101.845 63.1617 102.624 63.3811 103.074 63.6653C103.934 64.209 104.767 64.8561 105.574 65.4514C105.977 65.749 107.216 66.4016 107.278 66.9394Z" fill="white"/>
</svg>
